<svg xmlns="http://www.w3.org/2000/svg" viewBox="0 0 172.65 109.89"><defs><style>.cls-1{isolation:isolate;}.cls-2{fill:#444345;}.cls-3{mix-blend-mode:multiply;}.cls-4{fill:#232323;}.cls-5{fill:#fff;}</style></defs><g class="cls-1"><g id="Layer_2" data-name="Layer 2"><g id="Layer_1-2" data-name="Layer 1"><rect class="cls-2" width="172.65" height="109.89"/><g class="cls-3"><rect class="cls-4" x="20.14" y="49.48" width="3.03" height="17.41"/><path class="cls-4" d="M44.65,65.39c0,1.11-.38,1.68-1.15,1.68a2.9,2.9,0,0,1-1.88-1L30.46,54.81V66.89h-3V51a1.74,1.74,0,0,1,.33-1.06,1.12,1.12,0,0,1,.94-.45,2.54,2.54,0,0,1,1.74.89L41.62,61.56V49.48h3Z"/><path class="cls-4" d="M70.77,49.48l-9.93,16Q59.79,67.17,59,67.17c-.55,0-1.16-.57-1.86-1.71l-9.73-16h3.89L59,62.4l7.84-12.92Z"/><rect class="cls-4" x="72.74" y="49.48" width="3.03" height="17.41"/><polygon class="cls-4" points="100.1 66.91 95.75 66.91 89.63 60.57 83.49 66.91 79.14 66.91 87.62 58.23 79.14 49.48 83.36 49.48 89.63 55.9 95.9 49.48 100.1 49.48 91.64 58.23 100.1 66.91"/><rect class="cls-4" x="102.81" y="49.48" width="3.03" height="17.41"/><path class="cls-4" d="M129.48,59.06c0,2.81-.84,4.85-2.52,6.15-1.48,1.12-3.66,1.68-6.57,1.68h-1q-4.35,0-6.57-1.68c-1.69-1.3-2.53-3.34-2.53-6.15V49.48h3v9.58q0,3.13,2.16,4.16a13.47,13.47,0,0,0,5,.63,8.11,8.11,0,0,0,4.33-.89c1.16-.74,1.73-2,1.73-3.9V49.48h3Z"/><path class="cls-4" d="M159.15,66.91h-3.42l-2.52-12.18L147.37,66a1.8,1.8,0,0,1-1.62,1.15A1.93,1.93,0,0,1,144,66l-5.84-11.22-2.5,12.18h-3.44l3.91-16a2.33,2.33,0,0,1,.67-1.2,1.68,1.68,0,0,1,1.21-.51q1,0,1.89,1.71l5.81,11.39,5.83-11.39q.88-1.71,1.89-1.71a1.75,1.75,0,0,1,1.22.53,2.43,2.43,0,0,1,.66,1.18Z"/></g><rect class="cls-5" x="18.1" y="47.48" width="3.03" height="17.41"/><path class="cls-5" d="M42.62,63.38c0,1.12-.38,1.69-1.15,1.69a2.86,2.86,0,0,1-1.88-1L28.42,52.81V64.89h-3V49a1.74,1.74,0,0,1,.33-1.06,1.1,1.1,0,0,1,.94-.45,2.54,2.54,0,0,1,1.73.89L39.59,59.56V47.48h3Z"/><path class="cls-5" d="M68.74,47.48l-9.94,16c-.7,1.14-1.32,1.71-1.88,1.71s-1.17-.57-1.87-1.71l-9.73-16h3.9L57,60.4l7.85-12.92Z"/><rect class="cls-5" x="70.7" y="47.48" width="3.03" height="17.41"/><polygon class="cls-5" points="98.07 64.91 93.72 64.91 87.59 58.56 81.46 64.91 77.1 64.91 85.58 56.22 77.1 47.48 81.33 47.48 87.59 53.9 93.86 47.48 98.07 47.48 89.61 56.22 98.07 64.91"/><rect class="cls-5" x="100.77" y="47.48" width="3.03" height="17.41"/><path class="cls-5" d="M127.45,57.06c0,2.81-.84,4.85-2.52,6.15-1.48,1.11-3.67,1.68-6.58,1.68h-1c-2.91,0-5.1-.57-6.57-1.68-1.69-1.3-2.53-3.34-2.53-6.15V47.48h3v9.58q0,3.13,2.17,4.16a13.37,13.37,0,0,0,4.94.63,8.13,8.13,0,0,0,4.34-.89,4.28,4.28,0,0,0,1.73-3.9V47.48h3Z"/><path class="cls-5" d="M157.11,64.91H153.7l-2.52-12.18L145.34,64a1.81,1.81,0,0,1-1.63,1.15,1.93,1.93,0,0,1-1.79-1.18l-5.83-11.21-2.5,12.18h-3.44l3.9-16a2.3,2.3,0,0,1,.68-1.2,1.66,1.66,0,0,1,1.21-.51c.66,0,1.29.57,1.88,1.71l5.81,11.38,5.84-11.38c.59-1.14,1.22-1.71,1.88-1.71a1.73,1.73,0,0,1,1.23.53,2.55,2.55,0,0,1,.66,1.18Z"/></g></g></g></svg>